<svg xmlns="http://www.w3.org/2000/svg" width="500" height="500" preserveAspectRatio="none" style="display: block;" version="1.1" viewBox="0 0 2000 2000"><defs><linearGradient id="h" x1="399.306" x2="600.997" y1="820.549" y2="356.764" gradientUnits="userSpaceOnUse"><stop class="stop0" offset="0" stop-color="rgb(31,168,161)" stop-opacity="1"/><stop class="stop1" offset="1" stop-color="rgb(105,206,207)" stop-opacity="1"/></linearGradient><linearGradient id="g" x1="629.532" x2="587.959" y1="1852.11" y2="1348.19" gradientUnits="userSpaceOnUse"><stop class="stop0" offset="0" stop-color="rgb(65,186,184)" stop-opacity="1"/><stop class="stop1" offset="1" stop-color="rgb(130,212,214)" stop-opacity="1"/></linearGradient><linearGradient id="f" x1="1010.07" x2="939.376" y1="1854.73" y2="1288.83" gradientUnits="userSpaceOnUse"><stop class="stop0" offset="0" stop-color="rgb(61,183,182)" stop-opacity="1"/><stop class="stop1" offset="1" stop-color="rgb(133,212,214)" stop-opacity="1"/></linearGradient><linearGradient id="e" x1="1531.47" x2="1219.01" y1="1736.46" y2="1188.73" gradientUnits="userSpaceOnUse"><stop class="stop0" offset="0" stop-color="rgb(50,180,177)" stop-opacity="1"/><stop class="stop1" offset="1" stop-color="rgb(128,210,213)" stop-opacity="1"/></linearGradient><linearGradient id="d" x1="1013.78" x2="915.207" y1="1524.08" y2="748.75" gradientUnits="userSpaceOnUse"><stop class="stop0" offset="0" stop-color="rgb(255,161,3)" stop-opacity="1"/><stop class="stop1" offset="1" stop-color="rgb(253,199,51)" stop-opacity="1"/></linearGradient><linearGradient id="c" x1="1294.26" x2="1295.4" y1="582.898" y2="156.961" gradientUnits="userSpaceOnUse"><stop class="stop0" offset="0" stop-color="rgb(242,241,219)" stop-opacity="1"/><stop class="stop1" offset="1" stop-color="rgb(255,255,255)" stop-opacity="1"/></linearGradient><linearGradient id="b" x1="1296.74" x2="1276.75" y1="575.601" y2="75.05" gradientUnits="userSpaceOnUse"><stop class="stop0" offset="0" stop-color="rgb(254,154,0)" stop-opacity="1"/><stop class="stop1" offset="1" stop-color="rgb(253,200,53)" stop-opacity="1"/></linearGradient><linearGradient id="a" x1="1294.82" x2="1293.04" y1="580.617" y2="173.96" gradientUnits="userSpaceOnUse"><stop class="stop0" offset="0" stop-color="rgb(254,172,2)" stop-opacity="1"/><stop class="stop1" offset="1" stop-color="rgb(254,211,69)" stop-opacity="1"/></linearGradient></defs><path fill="rgb(252,249,244)" d="M826.592 366.58C839.299 315.558 867.875 263.04 899.538 221.677C907.382 211.43 915.557 198.214 923.853 188.592C956.951 150.207 996.654 115.744 1040.55 90.263C1050.96 84.22 1062.11 79.749 1072.53 74.082C1124.96 45.565 1191.6 26.494 1251.34 21.343A484.67 484.67 0 0 1 1607.53 135.76C1655.53 176.432 1709.37 244.888 1734.36 302.244C1752.54 343.981 1768.18 406.312 1774.25 451.597C1775.26 459.116 1775.36 480.774 1776.17 490.923C1811.11 499.26 1836.61 507.915 1862.04 534.471C1905.91 580.286 1906.11 625.556 1906.14 684.185L1906.16 757.359C1906.18 835.903 1907.12 916.487 1906.17 994.907C1907.87 996.745 1907.13 996.66 1909.55 997.367C1936.2 1005.14 1956.39 1026.17 1958.68 1054.36C1964.65 1079.87 1962.96 1109.48 1963.02 1136.05L1963.25 1227.09L1963.4 1301.27C1963.45 1328.2 1966.11 1359.05 1952.26 1382.99C1941.27 1404.81 1930.47 1413.28 1905.91 1416.14C1905.91 1429.59 1906.32 1445.36 1905.8 1458.62C1906.67 1504.41 1905.97 1550.33 1906.01 1596.14C1906.09 1693.7 1912.09 1761.55 1853.19 1846.1C1827.98 1882.28 1802.7 1903.77 1765.76 1927.42C1731.85 1949.12 1698.12 1964.45 1658.19 1971.43C1629.96 1976.36 1599.83 1974.96 1571.23 1974.92L1449.48 1974.47L984.494 1974.1L560.713 1974.07L435.857 1974.11C410.974 1974.12 384.618 1975.31 359.71 1972.44C234.081 1957.96 123.382 1857.33 102.359 1731.63C97.757 1704.11 98.306 1672.26 98.313 1644.37L98.371 1553.54L98.543 1222.65L98.13 853.533L98.12 747.802C98.133 670.871 95.343 621.044 142.763 555.277A248.86 248.86 0 0 1 250.621 469.866C281.182 457.467 327.527 451.322 360.594 445.537A7942 7942 0 0 1 519.009 417.938C533.115 415.718 548.332 415.214 562.276 412.822C650.418 397.703 738.353 381.045 826.592 366.58Z"/><path fill="rgb(106,202,201)" d="M1906.17 994.907C1907.87 996.745 1907.13 996.66 1909.55 997.367C1936.2 1005.14 1956.39 1026.17 1958.68 1054.36C1964.65 1079.87 1962.96 1109.48 1963.02 1136.05L1963.25 1227.09L1963.4 1301.27C1963.45 1328.2 1966.11 1359.05 1952.26 1382.99C1941.27 1404.81 1930.47 1413.28 1905.91 1416.14C1889.96 1415.29 1867.21 1416.06 1850.45 1415.9C1832.37 1417.32 1799.46 1416.15 1780.72 1416.21C1760.3 1416.27 1724.57 1417.06 1705.12 1415.04C1696.21 1414.12 1687.45 1412.08 1679.05 1408.98C1634.64 1392.77 1608.68 1361.02 1589.54 1319.63C1589.37 1312.65 1582.63 1297.03 1582.34 1286.96C1580.53 1250.97 1582.06 1214.88 1581.67 1178.93C1578.92 1114.4 1629.37 1051.35 1691.33 1035.62C1726.92 1026.59 1783.59 1032.03 1821.59 1030.6C1847.65 1029.61 1879.62 1029.36 1905.83 1030.24C1905.75 1018.46 1905.86 1006.68 1906.17 994.907Z"/><path fill="rgb(49,180,175)" d="M1850.45 1415.9C1842.99 1414.93 1823.8 1415.3 1815.64 1415.25C1795.8 1415.15 1775.96 1414.86 1756.12 1414.41C1761.05 1412.4 1807.74 1416.56 1817.41 1412.08C1819.11 1409.15 1818.83 1404.14 1818.97 1400.54C1811.21 1400.52 1756.56 1401.03 1753.97 1399.74C1760.41 1398.7 1780.13 1399.08 1787.9 1399.03L1863.98 1398.6C1883.41 1398.48 1903.78 1399.46 1922.86 1395.57C1933.55 1393.38 1942.44 1386.34 1952.26 1382.99C1941.27 1404.81 1930.47 1413.28 1905.91 1416.14C1889.96 1415.29 1867.21 1416.06 1850.45 1415.9ZM1906.17 994.907C1907.87 996.745 1907.13 996.66 1909.55 997.367C1936.2 1005.14 1956.39 1026.17 1958.68 1054.36C1943.69 1045.18 1932.62 1033.1 1911.91 1030.87L1905.83 1030.24C1905.75 1018.46 1905.86 1006.68 1906.17 994.907Z"/><path fill="rgb(252,249,244)" d="M1679.5 1299.25C1665.32 1282.4 1655.5 1272.84 1649.15 1250.48C1633.11 1194.02 1663.4 1130.03 1721.53 1114A92.37 92.37 0 0 1 1792.3 1123.7C1831.01 1146.22 1849.97 1189.86 1844.3 1233.72C1841.9 1252.3 1833.5 1266.93 1824.3 1282.83L1825.23 1284.17C1819.82 1293.59 1805.83 1299.27 1806.28 1312.33C1808.39 1314.93 1807.02 1313.99 1810.93 1314.57C1816.96 1311.26 1825.45 1298.93 1830.38 1293.2C1829.79 1298.66 1814.67 1313.87 1809.71 1317.72C1783.58 1338.02 1763.52 1342.51 1731.05 1339.26C1717.61 1337.92 1692.77 1329.5 1684.85 1319.51L1686.37 1319.02C1700.52 1329.27 1703.75 1330.58 1720.4 1335.89L1722.16 1335.26C1721.07 1332.7 1715.92 1329.31 1713.51 1327.63C1709.32 1324.71 1713.22 1322.13 1712.17 1321.49C1705.44 1317.38 1680.62 1307.33 1679.5 1299.25Z"/><path fill="rgb(49,180,175)" d="M1824.3 1282.83L1825.23 1284.17C1819.82 1293.59 1805.83 1299.27 1806.28 1312.33C1808.39 1314.93 1807.02 1313.99 1810.93 1314.57C1816.96 1311.26 1825.45 1298.93 1830.38 1293.2C1829.79 1298.66 1814.67 1313.87 1809.71 1317.72C1783.58 1338.02 1763.52 1342.51 1731.05 1339.26C1717.61 1337.92 1692.77 1329.5 1684.85 1319.51L1686.37 1319.02C1700.52 1329.27 1703.75 1330.58 1720.4 1335.89L1722.16 1335.26C1721.07 1332.7 1715.92 1329.31 1713.51 1327.63C1709.32 1324.71 1713.22 1322.13 1712.17 1321.49C1705.44 1317.38 1680.62 1307.33 1679.5 1299.25C1700.03 1315.28 1719.16 1324.96 1746.23 1324.71C1767.95 1324.51 1789.92 1314.85 1806.69 1301.24C1810.84 1297.87 1820.15 1287.18 1824.3 1282.83Z"/><path fill="rgb(253,187,31)" d="M1735.31 1150.59C1772.78 1145.24 1807.52 1171.2 1813.01 1208.65S1792.67 1280.94 1755.24 1286.57C1717.61 1292.23 1682.55 1266.23 1677.03 1228.58C1671.51 1190.94 1697.64 1155.97 1735.31 1150.59Z"/><path fill="rgb(231,232,228)" d="M1589.54 1319.63C1608.68 1361.02 1634.64 1392.77 1679.05 1408.98C1687.45 1412.08 1696.21 1414.12 1705.12 1415.04C1724.57 1417.06 1760.3 1416.27 1780.72 1416.21C1799.46 1416.15 1832.37 1417.32 1850.45 1415.9C1867.21 1416.06 1889.96 1415.29 1905.91 1416.14C1905.91 1429.59 1906.32 1445.36 1905.8 1458.62C1903.46 1451.68 1906.67 1432.21 1901.57 1429.64C1886 1435.21 1874.47 1430.15 1858.7 1432.79C1856.32 1434.79 1857.01 1437.67 1856.27 1441.93L1855.34 1435.51C1852.95 1433.94 1842.51 1436.88 1838.41 1436.73C1788.9 1434.85 1736.6 1440.31 1688.2 1428.17C1680.35 1426.2 1677.18 1423.62 1670.07 1420.7L1670.57 1419.92C1675.16 1419.84 1675.25 1421.85 1677.34 1422.17C1689.79 1424.08 1704.13 1430.29 1716.42 1431.35C1737.08 1433.13 1758.29 1432.85 1778.99 1433.05C1796.23 1433.15 1839.76 1436.29 1854.06 1431.83C1855.32 1427.79 1854.99 1422.83 1855 1418.49L1768.98 1418.55C1708.9 1418.64 1672.28 1421.68 1624.56 1376.18C1613.09 1365.25 1589.7 1335.42 1589.54 1319.63Z"/><path fill="url(#a)" d="M875.269 595.867C870.245 568.085 865.101 548.756 863.421 518.724C858.56 431.795 885.199 347.102 928.233 272.317C938.448 254.565 962.562 228.209 976.409 212.976A423 423 0 0 1 1060.39 142.574C1131.79 96.02 1192.56 77.68 1275.95 73.924C1411.36 67.824 1524.87 118.044 1614.4 218.219C1693.15 306.344 1721.55 394.328 1725.82 509.323C1702.29 511.534 1664.36 514.393 1642.03 518.464C1639.99 518.697 1635.91 519.275 1634.04 519.296C1621.07 519.588 1603.65 522.203 1590.55 523.836A1289 1289 0 0 1 1537.29 529.564C1438.09 538.843 1336.79 550.488 1237.55 560.906A6836 6836 0 0 1 1052.52 579.618C1029.84 581.604 983.976 582.613 964.363 586.08L960.318 586.722C936.853 587.861 899.669 593.288 875.269 595.867Z"/><path fill="url(#b)" d="M875.269 595.867C870.245 568.085 865.101 548.756 863.421 518.724C858.56 431.795 885.199 347.102 928.233 272.317C938.448 254.565 962.562 228.209 976.409 212.976A423 423 0 0 1 1060.39 142.574C1131.79 96.02 1192.56 77.68 1275.95 73.924C1411.36 67.824 1524.87 118.044 1614.4 218.219C1693.15 306.344 1721.55 394.328 1725.82 509.323C1702.29 511.534 1664.36 514.393 1642.03 518.464C1639.99 518.697 1635.91 519.275 1634.04 519.296C1632.93 509.109 1633 496.998 1632.89 486.631C1631.55 469.578 1630.1 449.508 1625.6 433.22C1609 373.111 1575.69 301.843 1527.33 261.292C1454.91 200.564 1365.29 165.8 1270.57 173.522A343.53 343.53 0 0 0 1034.39 295.122C1007.81 326.537 990.746 358.527 975.867 396.537C956.012 447.262 953.088 500.223 959.234 553.854C960.473 564.663 962.99 575.356 964.363 586.08L960.318 586.722C936.853 587.861 899.669 593.288 875.269 595.867Z"/><path fill="url(#c)" d="M960.318 586.722C927.885 478.725 957.357 360.766 1031.04 276.663C1042.79 260.963 1058.19 250.501 1072.51 237.83C1127.89 188.816 1197.32 163.236 1271 156.256C1369.88 146.889 1465.07 187.992 1539.15 252.552C1585.13 292.623 1619.75 366.306 1635.03 425.549C1639.36 443.541 1641.14 462.192 1642.31 480.692C1643 492.52 1643.72 506.752 1642.03 518.464C1639.99 518.697 1635.91 519.275 1634.04 519.296C1632.93 509.109 1633 496.998 1632.89 486.631C1631.55 469.578 1630.1 449.508 1625.6 433.22C1609 373.111 1575.69 301.843 1527.33 261.292C1454.91 200.564 1365.29 165.8 1270.57 173.522A343.53 343.53 0 0 0 1034.39 295.122C1007.81 326.537 990.746 358.527 975.867 396.537C956.012 447.262 953.088 500.223 959.234 553.854C960.473 564.663 962.99 575.356 964.363 586.08Z"/><path fill="rgb(249,221,173)" d="M1642.31 480.692C1643 492.52 1643.72 506.752 1642.03 518.464C1639.99 518.697 1635.91 519.275 1634.04 519.296C1632.93 509.109 1633 496.998 1632.89 486.631C1638.28 493.106 1633.22 500.399 1635.81 506.766C1644.73 502.536 1637.92 491.249 1642.31 480.692Z"/><path fill="url(#d)" d="M1648.74 654.427C1656.02 654.034 1661.72 654.4 1668.01 658.427C1683.04 668.044 1685.69 678.399 1683.4 695.123C1680.68 715.059 1677.04 734.458 1673.57 754.165C1669.67 776.645 1665.94 799.155 1662.39 821.693A6591 6591 0 0 1 1645.63 921.42C1642.77 938.194 1640.58 955.248 1636.98 971.873C1635.52 978.641 1633.11 989.526 1628.84 995.076C1624.07 1001.29 1614.2 1006.11 1606.47 1006.74C1600.88 1007.2 1595.5 1005.75 1590.71 1002.89C1581.44 997.353 1573.08 987.638 1565.23 980.222C1552.87 968.538 1540.35 956.747 1527.4 945.712C1520.57 939.888 1510.78 932.658 1501.46 936.745C1487.09 943.047 1418.04 1019.37 1402.31 1035.67C1381.87 1056.86 1360.05 1076.31 1338.72 1096.54C1314.31 1119.71 1290.39 1143.8 1266.87 1167.85L1151.85 1283.17C1135.85 1299.28 1120.08 1315.69 1104.21 1331.89C1090.13 1346.26 1077.25 1355.06 1056.8 1356.73C1018.79 1359.82 997.149 1336.8 970.383 1314.63L906.224 1260.56C895.687 1251.57 883.761 1243.81 872.786 1235.33C851.174 1218.63 830.373 1191.15 802.129 1214.44C759.363 1249.72 718.019 1286.71 676.419 1323.36L438.134 1533.86C410.765 1558.12 385.169 1586.26 354.508 1606.76C332.796 1621.28 314.116 1609.81 297.617 1595.33C277.251 1576.73 244.082 1555.32 237.617 1527.22C232.487 1499.74 261.387 1481.12 277.853 1465.38C302.088 1442.22 328.477 1422.39 353.157 1400.59L555.367 1219.29C572.228 1204.25 587.597 1187.89 604.348 1172.91C645.059 1136.49 685.313 1099.75 728.012 1065.65C741.948 1054.52 753.646 1038.6 768.23 1027.77C779.941 1019.07 792.846 1013.32 807.188 1010.47C865.288 998.857 891.536 1034.78 931.833 1067.93C949.008 1080.8 966.127 1093.3 983.103 1106.49C997.869 1117.44 1011.59 1130.46 1026.6 1140.95C1041.86 1151.61 1058.06 1152.21 1071.65 1138.57C1084.17 1126.01 1095.07 1112.2 1107.6 1099.71L1268.99 935.703C1279.53 924.979 1291.25 914.657 1302.16 904.219A3734 3734 0 0 0 1346.03 860.707C1357.17 849.563 1371.81 836.47 1379.6 823.252C1366.66 799.021 1310.38 770.262 1303.12 742.135C1301.81 734.095 1306.46 724.277 1311.25 718.587C1322.93 704.732 1345.58 704.063 1363.09 701.358Q1383.37 698.233 1403.53 694.44A6283 6283 0 0 1 1552.21 668.916C1582.78 663.861 1618.14 657.191 1648.74 654.427Z"/><path fill="url(#e)" d="M1364.69 1845.76C1360.13 1846.1 1354.66 1845.96 1350.03 1845.92C1307.68 1845.2 1264.72 1847.38 1222.45 1845.47C1191.59 1844.07 1195.9 1808.44 1195.86 1788L1195.76 1730.25L1195.57 1551.51L1195.2 1412.3C1195.15 1385.38 1193.9 1357.43 1197.04 1330.75C1197.68 1325.28 1204.77 1317.83 1208.53 1313.59C1216.48 1304.61 1225.63 1296.25 1233.91 1287.54C1250.96 1266.79 1270.8 1250.44 1289.52 1231.82C1327.05 1194.48 1364.64 1156.97 1401.86 1119.32C1419.17 1101.82 1434.96 1083.66 1454.17 1067.81C1465.97 1057.81 1476.31 1043.69 1488.7 1033.84C1498.22 1026.27 1508.19 1028.27 1516.98 1036.12C1521.99 1040.77 1523.14 1048.2 1523.25 1054.77C1523.71 1082.68 1523.2 1110.65 1523.14 1138.58L1523.02 1305.64L1523.01 1591.96C1523.02 1646.73 1523.51 1702.3 1522.79 1757C1523.03 1778.37 1524.41 1804.58 1521.96 1825.29C1518.81 1852.03 1469.47 1846.06 1450.42 1846.03L1368.13 1845.86C1366.98 1845.84 1365.84 1845.81 1364.69 1845.76Z"/><path fill="rgb(49,180,175)" d="M1364.69 1845.76C1358.5 1841.62 1272.99 1845.45 1264.54 1842.41L1265.37 1840.56C1274.66 1835.66 1276.57 1829.3 1284.36 1824.55C1286.97 1822.95 1298.27 1818.88 1301.9 1817.41C1311.8 1813.37 1321.47 1808.8 1330.88 1803.72C1340.33 1798.54 1350.85 1788.72 1359.15 1785.01C1373.71 1778.5 1387.5 1770.72 1401.97 1764.29C1416.07 1758.02 1431.5 1755.73 1446.02 1751.14C1462.36 1742.92 1478.96 1733.13 1496.57 1727.74C1522.71 1719.75 1516.83 1744.22 1522.79 1757C1523.03 1778.37 1524.41 1804.58 1521.96 1825.29C1518.81 1852.03 1469.47 1846.06 1450.42 1846.03L1368.13 1845.86C1366.98 1845.84 1365.84 1845.81 1364.69 1845.76Z"/><path fill="url(#f)" d="M842.959 1299.03C858.509 1298.74 867.704 1310.57 879.431 1319.98C903.958 1339.66 927.792 1360.96 951.751 1381.32C978.821 1404.33 998.911 1419.44 1035.63 1423.75C1072.19 1428.4 1100.35 1415.47 1128.97 1394.25L1128.92 1701.49L1129.14 1778.83C1129.17 1789.8 1130.06 1818.46 1127.57 1827.61C1114.75 1851.77 1086.13 1846.23 1062.37 1846.04C1042.91 1845.9 1023.44 1845.86 1003.98 1845.94L904.451 1846.06C875.061 1846.09 831.201 1854.42 830.973 1812.61C830.756 1772.69 830.698 1732.77 830.641 1692.84L830.346 1465.43L830.115 1372.34C830.03 1354.09 828.674 1328.2 831.653 1310.19C832.523 1304.93 838.626 1301.47 842.959 1299.03Z"/><path fill="url(#g)" d="M760.879 1331.73C763.329 1332.09 762.325 1331.53 763.908 1333.39C765.432 1364.83 764.9 1397.84 764.864 1429.43L764.576 1580.2L764.747 1739.29C764.777 1764.66 765.4 1790.23 764.84 1815.45C764.117 1848.02 735.693 1846.57 711.61 1846.12C704.362 1845.99 696.88 1846.11 689.718 1846.09L608.038 1845.9L525.247 1846.11C507.655 1846.16 476.876 1848.73 462.019 1840.73C457.269 1836.52 452.49 1831.4 451.598 1824.99C447.997 1799.1 449.999 1768.59 449.959 1742.43L449.702 1662.51C449.651 1649.34 448.568 1616.07 451.688 1604.07C453.909 1595.53 479.341 1576.78 487.394 1569.99A3585 3585 0 0 0 530.303 1532.56C539.56 1524.41 551.431 1514.95 559.986 1506.33C613.965 1451.91 674.766 1406.84 732.299 1356.56C741.263 1348.72 751.103 1337.87 760.879 1331.73Z"/><path fill="url(#h)" d="M770.4 431.413C784.404 429.194 799.222 426.605 813.222 424.872C807.406 456.379 806.802 487.754 806.818 519.636C807.697 550.234 811.27 571.996 817.861 601.653L816.78 601.696C779.526 603.55 732.077 610.287 694.281 614.104L421.053 643.434L308.65 655.194C285.449 657.645 255.321 659.77 233.592 666.053A180.2 180.2 0 0 0 149.95 717.574C149.709 672.996 157.367 630.531 183.369 593.244C201.688 566.976 237.248 537.749 266.468 525.672C293.755 514.394 326.576 509.708 355.694 504.891A2771 2771 0 0 0 415.846 494.247Z"/><path fill="rgb(106,202,201)" d="M770.4 431.413C784.404 429.194 799.222 426.605 813.222 424.872C807.406 456.379 806.802 487.754 806.818 519.636C803.026 506.868 805.442 501.571 804.099 489.235C802.77 477.028 785.557 469.729 778.672 459.775C776.119 458.52 778.053 451.66 777.583 451.007C774.896 447.269 769.669 445.429 770.157 439.456C772.735 437.544 773.33 437.357 775.161 434.674C773.896 432.058 773.994 432.82 770.4 431.413Z"/></svg>